# xmcd
# 
# Track frame offsets:
#     151
#     11843
#     34720
#     51561
#     69756
#     89517
#     104056
#     118805
#     136447
#     150215
#     167196
# 
# Disc length: 2469
# 
# Revision: 3
# Processed by: cddbd v1.5.2PL0 Copyright (c) Steve Scherf et al.
# Submitted via: fre:ac v1.0.27
# 
DISCID=9509a30b
DTITLE=黃妃 - 非常妃
DYEAR=2004
DGENRE=POP
TTITLE0=恨世生
TTITLE1=心甘情願
TTITLE2=See you 阿羅哈
TTITLE3=風雨無情
TTITLE4=妳的名 我的命
TTITLE5=星星知我心
TTITLE6=盼夢圓
TTITLE7=萬年奇緣
TTITLE8=南國情歌
TTITLE9=愛的腳步聲
TTITLE10=逍遙一曲歌
EXTD=
EXTT0=
EXTT1=
EXTT2=
EXTT3=
EXTT4=
EXTT5=
EXTT6=
EXTT7=
EXTT8=
EXTT9=
EXTT10=
PLAYORDER=
